<?xml version="1.0" standalone="no"?><!-- Generator: Gravit.io --><svg xmlns="http://www.w3.org/2000/svg" xmlns:xlink="http://www.w3.org/1999/xlink" style="isolation:isolate" viewBox="0 0 512 512" width="512" height="512"><defs><clipPath id="_clipPath_wEXSUkqRrQ6NS1q6foT4otPD9CrrtZoN"><rect width="512" height="512"/></clipPath></defs><g clip-path="url(#_clipPath_wEXSUkqRrQ6NS1q6foT4otPD9CrrtZoN)"><rect x="0" y="0" width="512" height="512" transform="matrix(1,0,0,1,0,0)" fill="rgb(65,63,69)"/><path d=" M 90.31 398.817 L 90.31 113.183 L 90.31 113.183 Q 90.31 101.467 94.773 91.007 L 94.773 91.007 L 94.773 91.007 Q 99.236 80.547 107.046 72.876 L 107.046 72.876 L 107.046 72.876 Q 114.856 65.205 125.317 60.603 L 125.317 60.603 L 125.317 60.603 Q 135.777 56 147.492 56 L 147.492 56 L 364.508 56 L 364.508 56 Q 376.223 56 386.683 60.603 L 386.683 60.603 L 386.683 60.603 Q 397.144 65.205 404.954 72.876 L 404.954 72.876 L 404.954 72.876 Q 412.764 80.547 417.227 91.007 L 417.227 91.007 L 417.227 91.007 Q 421.69 101.467 421.69 113.183 L 421.69 113.183 L 421.69 164.787 L 374.508 164.787 L 374.508 103.183 L 137.492 103.183 L 137.492 408.817 L 374.508 408.817 L 374.508 347.492 L 421.69 347.492 L 421.69 398.817 L 421.69 398.817 Q 421.69 410.533 417.227 420.993 L 417.227 420.993 L 417.227 420.993 Q 412.764 431.453 404.954 439.264 L 404.954 439.264 L 404.954 439.264 Q 397.144 447.074 386.683 451.537 L 386.683 451.537 L 386.683 451.537 Q 376.223 456 364.508 456 L 364.508 456 L 147.492 456 L 147.492 456 Q 135.777 456 125.317 451.537 L 125.317 451.537 L 125.317 451.537 Q 114.856 447.074 107.046 439.264 L 107.046 439.264 L 107.046 439.264 Q 99.236 431.453 94.773 420.993 L 94.773 420.993 L 94.773 420.993 Q 90.31 410.533 90.31 398.817 L 90.31 398.817 Z " fill="rgb(255,255,255)"/><path d=" M 180.203 321.333 L 180.203 190.667 L 180.203 190.667 Q 180.203 185.307 182.245 180.522 L 182.245 180.522 L 182.245 180.522 Q 184.286 175.737 187.859 172.228 L 187.859 172.228 L 187.859 172.228 Q 191.432 168.719 196.217 166.613 L 196.217 166.613 L 196.217 166.613 Q 201.003 164.508 206.362 164.508 L 206.362 164.508 L 305.638 164.508 L 305.638 164.508 Q 310.997 164.508 315.783 166.613 L 315.783 166.613 L 315.783 166.613 Q 320.568 168.719 324.141 172.228 L 324.141 172.228 L 324.141 172.228 Q 327.714 175.737 329.755 180.522 L 329.755 180.522 L 329.755 180.522 Q 331.797 185.307 331.797 190.667 L 331.797 190.667 L 331.797 214.273 L 305.638 214.273 L 305.638 190.667 L 206.362 190.667 L 206.362 321.333 L 305.638 321.333 L 305.638 297.854 L 331.797 297.854 L 331.797 321.333 L 331.797 321.333 Q 331.797 326.693 329.755 331.478 L 329.755 331.478 L 329.755 331.478 Q 327.714 336.263 324.141 339.836 L 324.141 339.836 L 324.141 339.836 Q 320.568 343.409 315.783 345.451 L 315.783 345.451 L 315.783 345.451 Q 310.997 347.492 305.638 347.492 L 305.638 347.492 L 206.362 347.492 L 206.362 347.492 Q 201.003 347.492 196.217 345.451 L 196.217 345.451 L 196.217 345.451 Q 191.432 343.409 187.859 339.836 L 187.859 339.836 L 187.859 339.836 Q 184.286 336.263 182.245 331.478 L 182.245 331.478 L 182.245 331.478 Q 180.203 326.693 180.203 321.333 L 180.203 321.333 Z " fill="rgb(255,255,255)"/></g></svg>